<svg xmlns="http://www.w3.org/2000/svg" viewBox="0 0 345.45 84"><defs><style>.cls-1{fill:#fff;}</style></defs><title>Asset 1</title><g id="Layer_2" data-name="Layer 2"><g id="Layer_1-2" data-name="Layer 1"><path class="cls-1" d="M24.34,70.24h7.75c6.89,0,12.82-1,17.35-8,3.49-5.32,5.39-13.08,6.7-19H30.08Z"/><path class="cls-1" d="M44,14.46H36.19L30.82,39.74h26c1.12-5.81,2.23-13.21.88-17.87C55.89,15.24,50.57,14.46,44,14.46Z"/><path class="cls-1" d="M18.5,0,0,84H327l18.5-84ZM326.67,14.46H300.09l-5.4,25.27h19.08L313,43.22H293.9l-5.66,27h27.19l-.78,3.48H283.36l6.48-30.5H252.56l-6.51,30.5H242l6.5-30.5H189.32l-5.67,27h27.2l-.79,3.48H178.77l6.48-30.5h-46.6l-5.72,27h27.54l-.78,3.48H128.05l6.48-30.5H84.74l-5.67,27h27.19l-.78,3.48H74.19l6.48-30.5H60.49C57.16,58.53,51.85,65.13,50.4,66.75c-3.75,4.1-8.81,7-16.47,7H19.46L32.79,11H48.48c7.32,0,11.51,4.1,13.07,8.89,1.21,3.61,1.52,10-.35,19.88H81.41L87.52,11H118.2l-.7,3.49H90.92l-5.4,25.27h49.75L141.38,11h4.1l-6.09,28.77H186L192.11,11h30.68l-.7,3.49H195.51L190.1,39.73h59.11l5.39-25.28h-18l.7-3.49h40.27l-.7,3.49H258.69L253.3,39.74h37.28L296.69,11h30.68Z"/></g></g></svg>